<svg preserveAspectRatio="none" width="100%" height="100%" overflow="visible" style="display: block;" viewBox="0 0 503 119.5" fill="none" xmlns="http://www.w3.org/2000/svg">
<g id="Group 68">
<path id="Vector" d="M447.209 107.603C438.681 115.534 427.778 119.5 414.5 119.5C401.222 119.5 390.319 115.591 381.791 107.772C373.264 99.841 369 89.3601 369 76.3298C369 63.1862 373.325 52.7619 381.974 45.0571C390.623 37.3522 401.465 33.4998 414.5 33.4998C427.657 33.4998 438.499 37.4088 447.026 45.227C455.675 52.9319 460 63.2995 460 76.3298C460 89.2468 455.736 99.671 447.209 107.603ZM402 76.3298C402 81.6598 403.085 87.2253 404.5 90.9998C406 94.9998 408 98.9345 414.5 98.9345C420.5 98.9345 422.5 95.9998 424.5 91.4998C426.056 87.9998 427 81.4998 427 76.3298C427 71.5635 426.423 66.9998 424.5 61.9998C423.015 58.1394 420 54.6045 415 53.9998C409 54.6045 406.081 59.3375 404.5 62.4998C403.5 64.4998 402 70.9998 402 76.3298Z" fill="var(--fill-0, #1F3062)"/>
<path id="Vector_2" d="M54.5 118H0.500001C-0.366666 118 0.500001 117.3 0.500001 116.5V96.5003C0.500001 96.5003 9.13333 96.5003 10 96.5003V86.0003V54.5003V23.0003H1.3C0.433333 23.0003 0 22.6003 0 21.8003V1C0 0.200003 0.133333 9.95696e-05 1 9.95696e-05L27 0C35 0.000131547 76 -5.60284e-05 81.5 3.99988C88 6.49988 97 13.9998 100 26.9999C101 33.9998 99.6054 45.8257 98 49.9998C95.5 56.4998 85.5 65.4999 76 67.5003C68.3996 69.4827 64.0558 70.0869 56.2 70.5003H44.5V95.9998H54.5V107V118ZM43.5 53.0001C47.5 52.9998 50.204 52.8307 54.5 52.4998C58.4952 51.6142 60.531 51.3314 63.5 49.0001C64.5 48.0001 68.5 45.0179 68.5 38.0001C68.5 30.9823 66.5 28.9998 64 26.4998C61.5 24.4998 57 23.3754 54 23.0001C51 22.6248 47.5 22.4998 43.5 23.0003V53.0001Z" fill="var(--fill-0, #1F3062)"/>
<path id="Vector 25" d="M185.585 69.0018V32.5018H165.085L164.585 35.5018L164.085 40.5017C159.085 36.5018 155.595 32.7911 149.085 31.0018C143.618 30.4275 140.552 30.2436 135.085 31.0018C128.565 32.0486 125.01 33.0396 119.085 36.5018C112.732 40.8999 110.252 44.5244 106 50.9998C102.433 59.0841 101.771 63.2079 101.085 71.5018C100.757 79.0549 101.332 83.1559 103.585 90.0018C105.821 95.509 107.459 98.466 111.085 103.502C115.672 108.05 117.823 109.436 122.585 112.502C131.691 116.66 136.949 118.36 146.585 118.502C154.085 118.612 165.625 115.932 165.585 116.002C165.545 116.072 172.475 112.792 178.085 109.002C182.347 106.057 184.094 104.084 187.085 100.502L173.085 85.0017C171.468 87.0721 170.391 88.1681 168.085 90.0018C165.585 91.4078 164.126 92.166 160.585 93.0018C156.095 93.9874 153.57 93.9782 149.085 93.0018C146.691 92.5369 145.289 91.9838 142.585 90.0018C140.641 87.9663 139.526 86.7133 137.085 82.5018C135.354 78.4716 134.776 75.8574 135.085 70.0018C135.325 66.0309 135.806 63.8264 138.085 60.0018C140.627 56.0293 142.447 54.5318 146.585 53.5018C149.709 52.5077 151.461 52.6781 154.585 53.5018C157.697 54.9572 159 56.4998 160.5 59.9998C161.074 63.5149 161.027 65.487 160.585 69.0018H185.585Z" fill="var(--fill-0, #1F3062)"/>
<path id="Vector 26" d="M231.5 33.4998H192.5L192 54.4998H199V91.9998C199.5 95.4998 200.453 96.8291 201.5 99.9998C203.552 105.248 204.697 107.642 208 111.5C211.908 115.058 214.871 116.203 219.5 117.5C227.271 119.283 230.655 118.568 238.5 118C241.696 117.572 243.5 117 245.5 116C250.481 112.078 252.471 109.652 256.5 105C257.045 109.895 258.467 113.636 261.5 116.5H292V94.4998H283.5V33.4998H241V54.4998H251.5V86.9998C249.828 90.4468 248.493 92.0696 245.5 94.4998C242.766 95.2654 241.234 95.5457 238.5 94.4998C234.448 91.5742 232.664 89.3549 231.5 82.9998V33.4998Z" fill="var(--fill-0, #1F3062)"/>
<path id="Vector 27" d="M299.5 54V33H330.5L335.5 43.5C337.5 39.9998 338 38.9998 341 35.9998C343.643 33.3566 346.5 30.9998 352 29.5L361 29.4998V59C357.095 58.3128 354.905 58.3873 351 59C346.649 60.0781 344.796 61.1586 342 63.5C338.836 68.5033 338.462 71.2029 338 76V94H346.5V116.5H299.5V94H307V54H299.5Z" fill="var(--fill-0, #1F3062)"/>
<ellipse id="Ellipse 2" cx="483.5" cy="99.4998" rx="19.5" ry="19" fill="var(--fill-0, #5E16EA)"/>
</g>
</svg>
